<svg width="868" height="501" viewBox="0 0 868 501" fill="none" xmlns="http://www.w3.org/2000/svg">
<g id="undraw_movie_night_fldd (1) 1" clip-path="url(#clip0)">
<g id="popcorn/drink">
<path id="Vector" d="M14.9553 192.036H300.153C303.866 192.036 307.427 193.511 310.052 196.136C312.678 198.762 314.153 202.323 314.153 206.036V228.274H0.955322V206.036C0.955325 202.323 2.43032 198.762 5.05582 196.136C7.68133 193.511 11.2423 192.036 14.9553 192.036Z" fill="#3F3D56"/>
<path id="Vector_2" d="M27.029 204.978C23.3575 204.978 19.7244 205.726 16.3515 207.176C12.9786 208.626 9.93651 210.748 7.41096 213.413C4.88542 216.078 2.92934 219.23 1.66209 222.676C0.394846 226.121 -0.156994 229.789 0.0402512 233.456L17.5676 474.476C17.9372 481.384 20.9419 487.887 25.9628 492.646C30.9837 497.405 37.6384 500.057 44.5563 500.057H270.552C277.47 500.057 284.124 497.405 289.145 492.646C294.166 487.887 297.171 481.384 297.54 474.476L315.068 233.456C315.265 229.789 314.713 226.121 313.446 222.676C312.179 219.23 310.223 216.078 307.697 213.413C305.172 210.748 302.13 208.626 298.757 207.176C295.384 205.726 291.751 204.978 288.079 204.978H27.029Z" fill="#3F3D56"/>
<path id="2572ddba-42e8-4159-9036-35cbff74dfb7" d="M525.45 79.41L518.68 62.92L428.41 99.98C426.366 100.82 424.618 102.249 423.388 104.085C422.158 105.92 421.5 108.08 421.5 110.29V207.82H439.33V114.79L525.45 79.41Z" fill="#3F3D56"/>
<path id="Vector_3" d="M495.008 500.073H375.918L346.748 208.403H520.938L495.008 500.073Z" fill="#A63131"/>
<path id="Vector_4" d="M533.3 198.93H334V218.37H533.3V198.93Z" fill="#3F3D56"/>
</g>
<g id="staw">
<path id="Vector_5" d="M513.85 45H494.41V106.57H513.85V45Z" fill="#6C63FF"/>
<path id="Vector_6" d="M483.07 57.96H463.63V119.53H483.07V57.96Z" fill="#6C63FF"/>
<path id="Vector_7" d="M453.09 110.62L439.32 114.67L433.65 49.0504H453.09V110.62Z" fill="#6C63FF"/>
<path id="Vector_8" d="M464.43 117.91H402.86V137.35H464.43V117.91Z" fill="#6C63FF"/>
<path id="Vector_9" d="M464.44 144.65H402.87V164.09H464.44V144.65Z" fill="#6C63FF"/>
<path id="Vector_10" d="M464.43 171.39H402.86V190.83H464.43V171.39Z" fill="#6C63FF"/>
</g>
<g id="strips">
<path id="Vector_11" d="M55.312 204.978H39.7815V500.057H55.312V204.978Z" fill="#FF6363"/>
<path id="Vector_12" d="M99.3149 204.978H83.7844V500.057H99.3149V204.978Z" fill="#6C63FF"/>
<path id="Vector_13" d="M143.318 204.978H127.787V500.057H143.318V204.978Z" fill="#FF6363"/>
<path id="Vector_14" d="M187.321 204.978H171.79V500.057H187.321V204.978Z" fill="#6C63FF"/>
<path id="Vector_15" d="M231.324 204.978H215.793V500.057H231.324V204.978Z" fill="#FF6363"/>
<path id="Vector_16" d="M275.327 204.978H259.796V500.057H275.327V204.978Z" fill="#6C63FF"/>
</g>
<g id="popcorn">
<path id="Vector_17" d="M293.525 187.093C292.115 187.099 290.717 187.337 289.385 187.797C288.928 185.959 287.814 184.352 286.254 183.279C284.693 182.207 282.794 181.742 280.914 181.974C279.034 182.206 277.305 183.118 276.051 184.538C274.798 185.958 274.108 187.787 274.111 189.681C274.111 189.72 274.121 189.756 274.122 189.794C273.151 189.886 272.194 190.085 271.266 190.386C271.003 189.341 270.526 188.361 269.866 187.51C269.205 186.659 268.375 185.954 267.428 185.439C269.916 184.064 271.883 181.91 273.029 179.308C279.362 179.205 284.465 174.627 284.465 168.974C284.465 163.255 279.25 158.62 272.817 158.62C271.408 158.626 270.01 158.864 268.678 159.325C268.439 158.307 267.996 157.348 267.376 156.506C266.757 155.663 265.973 154.956 265.072 154.425C264.171 153.894 263.171 153.551 262.134 153.417C261.097 153.283 260.044 153.361 259.038 153.645C258.031 153.93 257.093 154.415 256.28 155.072C255.466 155.729 254.794 156.544 254.305 157.468C253.815 158.392 253.518 159.406 253.43 160.448C253.343 161.49 253.468 162.539 253.797 163.531C253.488 163.746 253.199 163.988 252.91 164.229C251.446 162.969 249.544 162.336 247.617 162.467C246.621 159.609 244.652 157.191 242.053 155.639C239.455 154.087 236.393 153.499 233.404 153.977C230.415 154.456 227.69 155.971 225.706 158.257C223.722 160.543 222.606 163.454 222.553 166.481C221.514 166.563 220.489 166.768 219.498 167.09C219.387 166.652 219.237 166.225 219.052 165.813C220.074 164.911 220.895 163.805 221.462 162.566C222.029 161.327 222.329 159.983 222.343 158.62C222.343 152.902 217.128 148.266 210.695 148.266C209.286 148.273 207.888 148.511 206.556 148.971C206.317 147.953 205.874 146.994 205.255 146.152C204.635 145.31 203.851 144.602 202.95 144.071C202.049 143.54 201.05 143.198 200.013 143.064C198.976 142.93 197.922 143.007 196.916 143.292C195.91 143.576 194.971 144.062 194.158 144.719C193.345 145.376 192.673 146.191 192.183 147.115C191.693 148.039 191.396 149.052 191.308 150.094C191.221 151.136 191.346 152.185 191.675 153.178C190.046 154.309 188.699 155.802 187.739 157.539C186.78 159.276 186.234 161.21 186.143 163.193C186.034 163.29 185.908 163.369 185.805 163.472C185.998 162.733 186.099 161.972 186.106 161.208C186.106 155.49 180.891 150.855 174.458 150.855C173.049 150.861 171.65 151.099 170.318 151.56C170.079 150.542 169.637 149.583 169.017 148.74C168.397 147.898 167.613 147.19 166.712 146.66C165.811 146.129 164.812 145.786 163.775 145.652C162.738 145.518 161.684 145.596 160.678 145.88C159.672 146.165 158.734 146.65 157.92 147.307C157.107 147.964 156.435 148.779 155.945 149.703C155.455 150.627 155.158 151.641 155.071 152.683C154.984 153.725 155.108 154.773 155.438 155.766C153.719 156.953 152.315 158.54 151.345 160.39C150.375 162.239 149.868 164.297 149.868 166.385C149.868 168.474 150.375 170.531 151.345 172.381C152.315 174.231 153.719 175.817 155.438 177.005C154.914 178.509 154.914 180.146 155.438 181.65C154.141 182.555 153.019 183.688 152.126 184.994C151.647 183.255 150.574 181.739 149.094 180.709C147.613 179.68 145.819 179.201 144.022 179.356C142.226 179.511 140.54 180.291 139.258 181.56C137.977 182.828 137.18 184.506 137.006 186.301C135.968 185.693 134.847 185.24 133.678 184.956C135.775 183.572 137.426 181.61 138.432 179.308C144.765 179.205 149.868 174.627 149.868 168.974C149.868 163.255 144.653 158.62 138.22 158.62C136.811 158.626 135.412 158.864 134.081 159.325C133.842 158.307 133.399 157.348 132.779 156.506C132.159 155.663 131.375 154.956 130.474 154.425C129.573 153.894 128.574 153.551 127.537 153.417C126.5 153.283 125.447 153.361 124.44 153.645C123.434 153.93 122.496 154.415 121.683 155.072C120.869 155.729 120.197 156.544 119.707 157.468C119.218 158.392 118.92 159.406 118.833 160.448C118.746 161.49 118.871 162.539 119.2 163.531C119.034 163.647 118.884 163.782 118.724 163.905C118.32 163.868 117.928 163.797 117.513 163.797C116.104 163.803 114.705 164.041 113.373 164.502C113.324 164.306 113.244 164.125 113.181 163.936C113.431 162.784 113.411 161.589 113.122 160.446C112.833 159.302 112.283 158.242 111.515 157.347C110.747 156.452 109.782 155.747 108.695 155.288C107.609 154.83 106.431 154.629 105.254 154.702C104.58 152.825 103.481 151.129 102.043 149.748C100.605 148.366 98.8666 147.336 96.9642 146.737C95.0617 146.139 93.0467 145.989 91.0766 146.299C89.1065 146.609 87.2348 147.37 85.6078 148.524C83.9809 149.677 82.6428 151.191 81.6982 152.947C80.7535 154.704 80.228 156.655 80.1627 158.648C80.0974 160.641 80.4941 162.623 81.3217 164.437C82.1493 166.252 83.3854 167.85 84.9334 169.108C84.0429 169.21 83.1648 169.401 82.3125 169.678C82.0064 168.416 81.386 167.252 80.509 166.295C79.6319 165.337 78.5268 164.617 77.2965 164.201C76.0662 163.786 74.7508 163.688 73.4727 163.918C72.1946 164.148 70.9954 164.697 69.9868 165.515C68.8333 164.145 67.39 163.048 65.7612 162.303C64.1324 161.559 62.3585 161.185 60.5677 161.208C59.1586 161.215 57.7601 161.453 56.4283 161.913C56.1894 160.895 55.7466 159.936 55.1268 159.094C54.507 158.252 53.723 157.544 52.822 157.013C51.9211 156.482 50.9219 156.14 49.8848 156.006C48.8478 155.872 47.7943 155.949 46.7881 156.234C45.7819 156.518 44.8437 157.004 44.0302 157.661C43.2168 158.318 42.5449 159.133 42.0551 160.057C41.5654 160.981 41.2679 161.994 41.1807 163.036C41.0935 164.078 41.2183 165.127 41.5477 166.12C39.8297 167.307 38.4255 168.894 37.4554 170.744C36.4853 172.593 35.9782 174.65 35.9778 176.739C35.9778 176.779 35.9893 176.816 35.9896 176.856C34.1542 176.578 32.278 176.78 30.5442 177.444C30.3053 176.426 29.8625 175.467 29.2427 174.625C28.6229 173.782 27.8388 173.075 26.9379 172.544C26.0369 172.013 25.0378 171.67 24.0008 171.536C22.9637 171.402 21.9103 171.48 20.904 171.764C19.8978 172.049 18.9597 172.534 18.1462 173.191C17.3327 173.848 16.6608 174.663 16.1711 175.587C15.6813 176.511 15.3839 177.525 15.2966 178.567C15.2094 179.609 15.3342 180.658 15.6636 181.65C13.1673 183.34 11.3423 185.851 10.506 188.748C9.66964 191.644 9.87491 194.741 11.0861 197.502C12.2973 200.262 14.4377 202.511 17.1352 203.857C19.8327 205.202 22.9165 205.56 25.8504 204.867C26.3175 207.568 27.6329 210.049 29.6056 211.952C31.5784 213.854 34.1059 215.079 36.8215 215.448C39.5372 215.817 42.2997 215.311 44.7085 214.004C47.1173 212.696 49.047 210.656 50.2177 208.178C51.2779 210.421 52.9625 212.311 55.0696 213.621C57.1768 214.931 59.617 215.605 62.0977 215.563C64.5785 215.521 66.9945 214.765 69.0562 213.385C71.1179 212.004 72.7377 210.059 73.7216 207.781C75.2467 207.759 76.756 207.467 78.1789 206.918C79.0345 209.37 80.6103 211.506 82.7001 213.048C84.79 214.589 87.2965 215.464 89.8916 215.557C92.4867 215.65 95.0495 214.958 97.2446 213.57C99.4397 212.183 101.165 210.165 102.194 207.781C104.081 207.743 105.936 207.284 107.623 206.438C108.804 208.525 110.545 210.242 112.648 211.394C114.752 212.546 117.136 213.087 119.531 212.958C121.926 212.828 124.237 212.033 126.205 210.661C128.172 209.289 129.717 207.395 130.667 205.192C131.361 205.175 132.053 205.103 132.736 204.976C133.705 207.325 135.344 209.336 137.449 210.759C139.554 212.182 142.031 212.953 144.572 212.976C147.112 212.999 149.603 212.273 151.734 210.889C153.864 209.505 155.54 207.523 156.551 205.192C157.567 205.164 158.577 205.015 159.558 204.749C162.16 205.474 164.925 205.345 167.448 204.382C169.971 203.418 172.118 201.671 173.573 199.397C172.76 202.549 173.165 205.891 174.707 208.758C176.25 211.625 178.816 213.804 181.894 214.863C184.973 215.921 188.337 215.779 191.316 214.467C194.294 213.154 196.669 210.767 197.965 207.781C199.852 207.743 201.707 207.284 203.394 206.438C204.575 208.525 206.316 210.242 208.42 211.394C210.523 212.546 212.907 213.087 215.302 212.958C217.697 212.828 220.008 212.033 221.976 210.661C223.943 209.289 225.489 207.395 226.438 205.192C228.325 205.155 230.18 204.696 231.867 203.849C232.777 205.471 234.03 206.875 235.538 207.964C237.045 209.053 238.772 209.8 240.598 210.154C242.424 210.508 244.305 210.46 246.111 210.013C247.916 209.567 249.603 208.732 251.053 207.568C251.503 210.044 252.667 212.334 254.403 214.156C256.139 215.978 258.371 217.252 260.822 217.82C263.273 218.389 265.838 218.227 268.198 217.355C270.559 216.483 272.613 214.939 274.106 212.914C275.659 214.104 277.464 214.924 279.383 215.311C281.301 215.698 283.283 215.642 285.176 215.147C287.07 214.652 288.825 213.731 290.309 212.454C291.792 211.178 292.965 209.579 293.736 207.781C300.069 207.678 305.172 203.1 305.172 197.446C305.172 191.728 299.957 187.093 293.525 187.093ZM62.1772 181.75C62.1636 181.813 62.1542 181.877 62.1414 181.94C62.0469 181.936 61.9574 181.916 61.8619 181.916C61.4751 181.926 61.0896 181.964 60.7086 182.032C60.7296 181.985 60.7592 181.944 60.7795 181.897C61.2477 181.873 61.7143 181.825 62.1772 181.75ZM170.318 177.444C170.281 177.293 170.216 177.154 170.17 177.007C172.146 175.637 173.704 173.746 174.67 171.543C176.372 171.534 178.053 171.167 179.603 170.464C181.154 169.762 182.539 168.741 183.669 167.468C183.57 167.964 183.519 168.468 183.517 168.974C183.528 169.764 183.66 170.547 183.91 171.296C181.688 172.846 180.005 175.051 179.099 177.604C176.284 176.509 173.171 176.452 170.318 177.444V177.444ZM247.842 178.409C247.837 178.25 247.857 178.087 247.846 177.929C248.176 177.928 248.506 177.906 248.833 177.862C249.335 179.537 250.174 181.091 251.299 182.43C251.054 182.499 250.797 182.54 250.559 182.62C250.141 180.956 249.186 179.476 247.842 178.409Z" fill="#F9A825"/>
</g>
</g>
<defs>
<clipPath id="clip0">
<rect width="867.108" height="500.057" fill="white"/>
</clipPath>
</defs>
</svg>
